<svg width="24" height="97" xmlns="http://www.w3.org/2000/svg">
 <g>
  <title>background</title>
  <rect x="-1" y="-1" width="26" height="99" id="canvas_background" fill="none"/>
 </g>

 <g>
  <title>Layer 1</title>
  <g id="icon">
   <g opacity="0.25" id="svg_3"/>
   <g fill="#dbe2eb" id="svg_5">
    <path d="m24.02429,22.84452l-2.547,-20.77c-0.127,-0.914 -1.16,-1.658 -1.961,-2.012a0.775,0.775 0 0 0 -1.057,0.733l0,21.42l-4.171,0l-0.716,-20.731a1.54,1.54 0 0 0 -3.078,0l-0.715,20.731l-4.098,0l0,-21.42a0.775,0.775 0 0 0 -1.057,-0.733c-0.8,0.354 -1.9,1.1 -2.029,2.012l-2.559,20.741a3.932,3.932 0 0 0 0.581,2.648l7.028,11.08l-1.732,53.786a6.057,6.057 0 0 0 5.33,6.3a5.9,5.9 0 0 0 6.446,-6.045l-1.709,-52.924l7.508,-12.212a3.937,3.937 0 0 0 0.536,-2.604z" id="svg_7"/>
   </g>
  </g>
 </g>
</svg>